<svg width="24" height="24" viewBox="0 0 24 24" fill="none" xmlns="http://www.w3.org/2000/svg">
<path d="M6.5 12C6.5 12.3842 6.64061 12.7119 6.93265 13.0056L15.3692 21.6271C15.5964 21.8757 15.8992 22 16.2453 22C16.9484 22 17.5 21.435 17.5 20.6893C17.5 20.3277 17.3594 20 17.1214 19.7514L9.5177 12L17.1214 4.24859C17.3594 3.9887 17.5 3.66102 17.5 3.29944C17.5 2.56497 16.9484 2 16.2453 2C15.8992 2 15.5964 2.12429 15.3692 2.37288L6.93265 10.9943C6.64061 11.2881 6.51082 11.6158 6.5 12Z" fill="#61dafb"/>
</svg>
