<svg width="24" height="24" viewBox="0 0 24 24" fill="none" xmlns="http://www.w3.org/2000/svg">
<path d="M17.5 12C17.5 11.6158 17.3594 11.2881 17.0674 10.9944L8.63078 2.37288C8.40364 2.12429 8.10079 2 7.75467 2C7.05162 2 6.5 2.56497 6.5 3.31073C6.5 3.67232 6.64061 4 6.87857 4.24859L14.4823 12L6.87857 19.7514C6.64061 20.0113 6.5 20.339 6.5 20.7006C6.5 21.435 7.05162 22 7.75467 22C8.10079 22 8.40364 21.8757 8.63078 21.6271L17.0674 13.0057C17.3594 12.7119 17.4892 12.3842 17.5 12Z" fill="#61dafb"/>
</svg>
