<svg width="24" height="24" viewBox="0 0 24 24" fill="none" xmlns="http://www.w3.org/2000/svg">
<path d="M20.1317 4.29289C19.7412 3.90237 19.108 3.90237 18.7175 4.29289L12 11.0104L5.28249 4.29289C4.89196 3.90237 4.2588 3.90237 3.86827 4.29289C3.47775 4.68342 3.47775 5.31658 3.86827 5.70711L10.5858 12.4246L3.86827 19.1421C3.47775 19.5327 3.47775 20.1658 3.86827 20.5563C4.2588 20.9469 4.89196 20.9469 5.28249 20.5563L12 13.8388L18.7175 20.5563C19.108 20.9469 19.7412 20.9469 20.1317 20.5563C20.5223 20.1658 20.5223 19.5327 20.1317 19.1421L13.4142 12.4246L20.1317 5.70711C20.5223 5.31658 20.5223 4.68342 20.1317 4.29289Z" fill="white"/>
</svg>
