<svg width="32" height="32" viewBox="0 0 32 32" fill="none" xmlns="http://www.w3.org/2000/svg">
<path d="M14 9H18C18 8.46957 17.7893 7.96086 17.4142 7.58579C17.0391 7.21071 16.5304 7 16 7C15.4696 7 14.9609 7.21071 14.5858 7.58579C14.2107 7.96086 14 8.46957 14 9ZM12.5 9C12.5 8.54037 12.5905 8.08525 12.7664 7.66061C12.9423 7.23597 13.2001 6.85013 13.5251 6.52513C13.8501 6.20012 14.236 5.94231 14.6606 5.76642C15.0852 5.59053 15.5404 5.5 16 5.5C16.4596 5.5 16.9148 5.59053 17.3394 5.76642C17.764 5.94231 18.1499 6.20012 18.4749 6.52513C18.7999 6.85013 19.0577 7.23597 19.2336 7.66061C19.4095 8.08525 19.5 8.54037 19.5 9H25.25C25.4489 9 25.6397 9.07902 25.7803 9.21967C25.921 9.36032 26 9.55109 26 9.75C26 9.94891 25.921 10.1397 25.7803 10.2803C25.6397 10.421 25.4489 10.5 25.25 10.5H23.93L22.76 22.611C22.6702 23.539 22.238 24.4002 21.5477 25.0268C20.8573 25.6534 19.9583 26.0004 19.026 26H12.974C12.0419 26.0001 11.1431 25.653 10.4529 25.0265C9.7628 24.3999 9.33073 23.5388 9.241 22.611L8.07 10.5H6.75C6.55109 10.5 6.36032 10.421 6.21967 10.2803C6.07902 10.1397 6 9.94891 6 9.75C6 9.55109 6.07902 9.36032 6.21967 9.21967C6.36032 9.07902 6.55109 9 6.75 9H12.5ZM14.5 13.75C14.5 13.5511 14.421 13.3603 14.2803 13.2197C14.1397 13.079 13.9489 13 13.75 13C13.5511 13 13.3603 13.079 13.2197 13.2197C13.079 13.3603 13 13.5511 13 13.75V21.25C13 21.4489 13.079 21.6397 13.2197 21.7803C13.3603 21.921 13.5511 22 13.75 22C13.9489 22 14.1397 21.921 14.2803 21.7803C14.421 21.6397 14.5 21.4489 14.5 21.25V13.75ZM18.25 13C18.4489 13 18.6397 13.079 18.7803 13.2197C18.921 13.3603 19 13.5511 19 13.75V21.25C19 21.4489 18.921 21.6397 18.7803 21.7803C18.6397 21.921 18.4489 22 18.25 22C18.0511 22 17.8603 21.921 17.7197 21.7803C17.579 21.6397 17.5 21.4489 17.5 21.25V13.75C17.5 13.5511 17.579 13.3603 17.7197 13.2197C17.8603 13.079 18.0511 13 18.25 13ZM10.734 22.467C10.7879 23.0236 11.0472 23.5403 11.4614 23.9161C11.8755 24.292 12.4147 24.5001 12.974 24.5H19.026C19.5853 24.5001 20.1245 24.292 20.5386 23.9161C20.9528 23.5403 21.2121 23.0236 21.266 22.467L22.424 10.5H9.576L10.734 22.467Z" fill="white"/>
</svg>
